HIERARCHY
ROOT Hips
{
	OFFSET 0.000000 0.000000 0.000000
	CHANNELS 6 Xposition Yposition Zposition Zrotation Yrotation Xrotation 
	JOINT LHipJoint
	{
		OFFSET 0.000000 0.000000 0.000000
		CHANNELS 3 Zrotation Yrotation Xrotation
		JOINT LeftUpLeg
		{
			OFFSET 1.363060 -1.794630 0.839290
			CHANNELS 3 Zrotation Yrotation Xrotation
			JOINT LeftLeg
			{
				OFFSET 2.448110 -6.726130 0.000000
				CHANNELS 3 Zrotation Yrotation Xrotation
				JOINT LeftFoot
				{
					OFFSET 2.562200 -7.039590 0.000000
					CHANNELS 3 Zrotation Yrotation Xrotation
					JOINT LeftToeBase
					{
						OFFSET 0.157640 -0.433110 2.322550
						CHANNELS 3 Zrotation Yrotation Xrotation
						End Site
						{
							OFFSET 0.000000 0.000000 0.000000
						}
					}
				}
			}
		}
	}
	JOINT RHipJoint
	{
		OFFSET 0.000000 0.000000 0.000000
		CHANNELS 3 Zrotation Yrotation Xrotation
		JOINT RightUpLeg
		{
			OFFSET -1.305520 -1.794630 0.839290
			CHANNELS 3 Zrotation Yrotation Xrotation
			JOINT RightLeg
			{
				OFFSET -2.542530 -6.985550 0.000000
				CHANNELS 3 Zrotation Yrotation Xrotation
				JOINT RightFoot
				{
					OFFSET -2.568260 -7.056230 0.000000
					CHANNELS 3 Zrotation Yrotation Xrotation
					JOINT RightToeBase
					{
						OFFSET -0.164730 -0.452590 2.363150
						CHANNELS 3 Zrotation Yrotation Xrotation
						End Site
						{
							OFFSET 0.000000 0.000000 0.000000
						}
					}
				}
			}
		}
	}
	JOINT LowerBack
	{
		OFFSET 0.000000 0.000000 0.000000
		CHANNELS 3 Zrotation Yrotation Xrotation
		JOINT Spine
		{
			OFFSET 0.028270 2.035590 -0.193380
			CHANNELS 3 Zrotation Yrotation Xrotation
			JOINT Spine1
			{
				OFFSET 0.056720 2.048850 -0.042750
				CHANNELS 3 Zrotation Yrotation Xrotation
				JOINT Neck
				{
					OFFSET 0.000000 0.000000 0.000000
					CHANNELS 3 Zrotation Yrotation Xrotation
					JOINT Neck1
					{
						OFFSET -0.054170 1.746240 0.172020
						CHANNELS 3 Zrotation Yrotation Xrotation
						JOINT Head
						{
							OFFSET 0.104070 1.761360 -0.123970
							CHANNELS 3 Zrotation Yrotation Xrotation
							End Site
							{
								OFFSET 0.000000 0.000000 0.000000
							}
						}
					}
				}
				JOINT LeftShoulder
				{
					OFFSET 0.000000 0.000000 0.000000
					CHANNELS 3 Zrotation Yrotation Xrotation
					JOINT LeftArm
					{
						OFFSET 3.362410 1.200890 -0.311210
						CHANNELS 3 Zrotation Yrotation Xrotation
						JOINT LeftForeArm
						{
							OFFSET 4.983000 -0.000000 -0.000000
							CHANNELS 3 Zrotation Yrotation Xrotation
							JOINT LeftHand
							{
								OFFSET 3.483560 -0.000000 -0.000000
								CHANNELS 3 Zrotation Yrotation Xrotation
								JOINT LeftFingerBase
								{
									OFFSET 0.000000 0.000000 0.000000
									CHANNELS 3 Zrotation Yrotation Xrotation
									JOINT LeftHandIndex1
									{
										OFFSET 0.715260 -0.000000 -0.000000
										CHANNELS 3 Zrotation Yrotation Xrotation
										End Site
										{
											OFFSET 0.000000 0.000000 0.000000
										}
									}
								}
								JOINT LThumb
								{
									OFFSET 0.000000 0.000000 0.000000
									CHANNELS 3 Zrotation Yrotation Xrotation
									End Site
									{
										OFFSET 0.000000 0.000000 0.000000
									}
								}
							}
						}
					}
				}
				JOINT RightShoulder
				{
					OFFSET 0.000000 0.000000 0.000000
					CHANNELS 3 Zrotation Yrotation Xrotation
					JOINT RightArm
					{
						OFFSET -3.136600 1.374050 -0.404650
						CHANNELS 3 Zrotation Yrotation Xrotation
						JOINT RightForeArm
						{
							OFFSET -5.241900 -0.000000 -0.000000
							CHANNELS 3 Zrotation Yrotation Xrotation
							JOINT RightHand
							{
								OFFSET -3.444170 -0.000000 -0.000000
								CHANNELS 3 Zrotation Yrotation Xrotation
								JOINT RightFingerBase
								{
									OFFSET 0.000000 0.000000 0.000000
									CHANNELS 3 Zrotation Yrotation Xrotation
									JOINT RightHandIndex1
									{
										OFFSET -0.622530 -0.000000 -0.000000
										CHANNELS 3 Zrotation Yrotation Xrotation
										End Site
										{
											OFFSET 0.000000 0.000000 0.000000
										}
									}
								}
								JOINT RThumb
								{
									OFFSET 0.000000 0.000000 0.000000
									CHANNELS 3 Zrotation Yrotation Xrotation
									End Site
									{
										OFFSET 0.000000 0.000000 0.000000
									}
								}
							}
						}
					}
				}
			}
		}
	}
}
MOTION
Frames: 7
Frame Time: 0.008333
9.688786 17.814324 -7.968602 -3.749719 -9.140408 8.428115 0.110477 -1.961356 -3.702403 -11.765103 2.551918 -36.885968 -1.149337 11.418214 25.577705 -1.523520 12.059903 21.842684 0.065300 -1.649100 -4.536900 0.080384 -2.763197 3.862933 18.669830 0.676271 8.793836 1.407322 -5.445139 19.264975 -1.331218 -1.930249 28.842128 -0.438600 4.249800 -11.780600 2.232057 5.158920 -3.169717 0.668818 5.879488 -5.253759 4.143394 3.688223 5.143471 -10.462934 -4.620432 -16.142383 5.459480 -3.871837 7.680543 5.816700 -2.260700 10.629500 -1.203547 -6.065368 -0.639270 -83.860232 17.883548 -7.112784 0.935413 -6.475313 -0.412648 0.906223 1.452467 38.864766 7.562927 -21.235641 -3.045600 -7.125000 0.000000 0.000000 -13.227800 7.351900 11.752100 -0.269232 8.397907 0.861753 71.421985 5.519089 43.147449 -27.224252 32.727392 -10.965146 2.622457 2.225880 -21.576881 -33.025927 -21.595993 15.406700 7.125000 0.000000 0.000000 -8.272000 -56.474600 2.338400
9.707636 17.810628 -7.846629 -3.648533 -8.983351 8.381466 0.101935 -1.959172 -3.642148 -12.025600 2.519780 -36.804765 -1.094538 11.527999 26.031169 -1.387516 11.518166 21.591342 0.061798 -1.603460 -4.411051 0.080556 -2.696464 3.782065 18.474993 -0.010689 7.906857 1.085314 -6.030858 20.932250 -1.416381 -1.940159 29.600477 -0.435211 4.233476 -11.734451 2.222022 5.107837 -3.225766 0.661808 5.819211 -5.238747 4.088267 3.643246 5.297255 -10.458913 -4.636007 -16.335673 5.456194 -3.883503 7.715383 5.823817 -2.263637 10.704738 -1.224378 -6.069193 -0.630668 -83.822399 17.411403 -7.433271 0.958614 -6.468706 -0.418238 0.923145 1.454236 38.964861 7.548228 -21.340010 -3.050797 -7.125000 0.000000 0.000000 -13.243051 7.240285 11.796102 -0.265894 8.373408 0.848341 71.572505 5.346381 42.951071 -26.868598 32.502574 -10.826708 2.680926 2.313107 -21.616242 -33.937694 -22.412070 16.485062 7.125000 0.000000 0.000000 -9.413230 -57.658872 2.959965
9.727151 17.808841 -7.723751 -3.490576 -8.871105 8.315866 0.084899 -1.951566 -3.574198 -12.330831 2.492834 -36.690731 -1.044848 11.627714 26.462499 -1.270839 11.016423 21.294940 0.058140 -1.555238 -4.278093 0.079479 -2.635725 3.700887 18.210992 -0.621468 7.039952 0.755045 -6.617989 22.619948 -1.500012 -1.926579 30.303362 -0.442095 4.264741 -11.822848 2.154459 5.058694 -3.274511 0.648500 5.765953 -5.222059 4.024111 3.600475 5.457244 -10.426122 -4.650376 -16.552154 5.449476 -3.900610 7.749872 5.817847 -2.266056 10.786916 -1.244735 -6.074083 -0.622090 -83.768809 16.941423 -7.779281 0.982267 -6.462723 -0.424090 0.943270 1.451501 39.068082 7.468755 -21.434744 -3.026537 -7.125000 0.000000 0.000000 -13.301196 7.145830 11.876241 -0.263170 8.348780 0.833038 71.745600 5.193425 42.790218 -26.509559 32.268140 -10.677257 2.732850 2.392215 -21.664962 -34.735874 -23.138927 17.443380 7.125000 0.000000 0.000000 -10.422055 -58.712023 3.520982
9.748897 17.813462 -7.597836 -3.142161 -8.909195 8.186690 0.039364 -1.925774 -3.480433 -12.786139 2.483311 -36.466554 -1.012295 11.693647 26.819572 -1.219000 10.648858 20.847372 0.053960 -1.498358 -4.121290 0.074210 -2.595093 3.618670 17.714959 -0.976673 6.240394 0.397061 -7.209856 24.376165 -1.578501 -1.834189 30.820176 -0.483442 4.455662 -12.362622 1.893898 5.016062 -3.298750 0.614064 5.736244 -5.199748 3.929665 3.565106 5.638047 -10.296809 -4.660696 -16.846439 5.431243 -3.935967 7.783181 5.767970 -2.266733 10.892374 -1.263499 -6.082544 -0.613591 -83.662356 16.478705 -8.210918 1.007439 -6.458833 -0.430820 0.974144 1.433658 39.181794 7.171980 -21.497152 -2.903455 -7.125000 0.000000 0.000000 -13.503244 7.108945 12.077611 -0.262508 8.323719 0.811390 71.994430 5.106738 42.748541 -26.139167 32.001448 -10.490859 2.762814 2.444086 -21.745077 -35.152990 -23.566461 17.998970 7.125000 0.000000 0.000000 -10.986683 -59.325285 3.878874
9.769087 17.821081 -7.475260 -2.718139 -9.015901 8.061833 -0.018160 -1.896669 -3.377766 -13.301376 2.504193 -36.232291 -0.990726 11.737164 27.108234 -1.204169 10.390540 20.382351 0.046123 -1.378128 -3.790056 0.070691 -2.557596 3.531911 17.151354 -1.163231 5.426240 0.011039 -7.814972 26.155111 -1.610362 -1.975702 31.278119 -0.509172 4.573790 -12.696707 1.514592 4.992611 -3.290513 0.574141 5.738354 -5.188085 3.883225 3.545295 5.713816 -10.188477 -4.655102 -17.016313 5.425470 -3.948867 7.791166 5.727822 -2.258877 10.948751 -1.281069 -6.103101 -0.606102 -83.569519 16.104328 -8.629624 1.036885 -6.470933 -0.440169 1.002239 1.432319 39.374917 7.092101 -21.670209 -2.887745 -7.125000 0.000000 0.000000 -13.563730 6.932469 12.182064 -0.262293 8.316029 0.791596 72.266107 4.973999 42.713674 -25.734298 31.681005 -10.265269 2.786134 2.469807 -21.823489 -35.363757 -23.737115 18.249618 7.125000 0.000000 0.000000 -11.283569 -59.576248 4.047548
9.787445 17.832230 -7.356613 -2.205098 -9.203399 7.942060 -0.089802 -1.863664 -3.264619 -13.887174 2.560875 -35.986154 -0.982091 11.754291 27.316350 -1.232912 10.260851 19.896780 0.033978 -1.183310 -3.253446 0.069232 -2.523789 3.439805 16.508188 -1.151221 4.594899 -0.407995 -8.435688 27.960819 -1.587322 -2.392618 31.666748 -0.516515 4.606213 -12.788608 0.995473 4.991745 -3.244040 0.527759 5.777929 -5.188961 3.893307 3.543804 5.665918 -10.104850 -4.630771 -17.039701 5.434366 -3.935325 7.769333 5.699127 -2.240971 10.947339 -1.297232 -6.137901 -0.599802 -83.492715 15.833966 -9.033107 1.071362 -6.501859 -0.452602 1.027063 1.450411 39.661540 7.267602 -21.973546 -2.998456 -7.125000 0.000000 0.000000 -13.457538 6.591637 12.172405 -0.262605 8.328791 0.773986 72.564686 4.787039 42.686825 -25.288834 31.297275 -9.993533 2.801630 2.464740 -21.899898 -35.331566 -23.605312 18.141223 7.125000 0.000000 0.000000 -11.265211 -59.400635 3.993435
9.804826 17.848133 -7.239198 -1.750848 -9.344318 7.835951 -0.173144 -1.831870 -3.142842 -14.410554 2.592370 -35.688357 -0.991163 11.734148 27.418524 -1.267443 10.173058 19.446213 0.031795 -1.150717 -3.163585 0.059453 -2.482781 3.331951 15.954571 -1.150870 3.725143 -0.882626 -9.073543 29.830888 -1.520590 -3.034564 32.011548 -0.506154 4.560072 -12.657933 0.525145 5.000185 -3.159643 0.495889 5.820904 -5.203519 3.987348 3.544620 5.518978 -10.138137 -4.610139 -16.977628 5.425068 -3.892758 7.750518 5.689305 -2.226217 10.936005 -1.303050 -6.186246 -0.605010 -83.570164 15.640202 -9.393643 1.147728 -6.600306 -0.473182 1.050343 1.469330 40.063367 7.576087 -22.279491 -3.170065 -7.125000 0.000000 0.000000 -13.268696 6.234461 12.084610 -0.257097 8.355141 0.758093 72.769632 4.482425 42.603955 -24.838257 30.891652 -9.715648 2.812334 2.451472 -21.958524 -35.160037 -23.371979 17.881031 7.125000 0.000000 0.000000 -11.066574 -59.073421 3.836983
